<svg xmlns="http://www.w3.org/2000/svg" fill="none" focusable="false" width="24" height="24" class="icon icon--twitter-share-mobile   " viewBox="0 0 24 24">
        <path fill-rule="evenodd" clip-rule="evenodd" d="M15.414 4.96068C16.9196 4.93626 17.7211 5.43865 18.4864 6.07724C19.1362 6.02649 19.9806 5.69424 20.478 5.46269C20.6391 5.38182 20.8004 5.30133 20.9616 5.22046C20.6775 5.92312 20.2923 6.47359 19.7004 6.89092C19.5689 6.98361 19.4384 7.10911 19.2736 7.16824C19.2736 7.17091 19.2736 7.17396 19.2736 7.17663C20.1171 7.16863 20.8129 6.82034 21.4737 6.63114C21.4737 6.63417 21.4737 6.63723 21.4737 6.64028C21.1266 7.14535 20.6568 7.65767 20.1556 8.02502C19.9532 8.17227 19.7509 8.31951 19.5486 8.46676C19.5597 9.28425 19.5354 10.0643 19.3684 10.7518C18.3977 14.7465 15.8254 17.4588 11.7534 18.6203C10.2913 19.0377 7.92842 19.2089 6.25322 18.8282C5.42246 18.6394 4.67201 18.4262 3.96773 18.1443C3.57662 17.9875 3.21425 17.8181 2.86766 17.6251C2.75395 17.5614 2.64012 17.4981 2.52626 17.4343C2.90422 17.445 3.34615 17.54 3.76862 17.4778C4.15075 17.4214 4.52554 17.4359 4.87817 17.3653C5.75753 17.1887 6.53832 16.9552 7.21099 16.5947C7.53708 16.42 8.03189 16.2148 8.26361 15.963C7.82698 15.9699 7.43107 15.8772 7.10676 15.7727C5.84923 15.366 5.11723 14.6187 4.64102 13.4961C5.02212 13.5338 6.11978 13.6246 6.37642 13.4266C5.89678 13.4026 5.43547 13.1482 5.10574 12.9589C4.09421 12.3795 3.26926 11.4075 3.27545 9.91215C3.40826 9.96975 3.54108 10.0277 3.67378 10.0853C3.92789 10.1834 4.18618 10.2356 4.48934 10.2932C4.61736 10.3173 4.87337 10.3863 5.02034 10.3363C5.01403 10.3363 5.0077 10.3363 5.00138 10.3363C4.80571 10.1277 4.48682 9.98884 4.29014 9.76491C3.64126 9.02638 3.0331 7.88999 3.41774 6.53614C3.51528 6.19282 3.6701 5.88956 3.83503 5.60993C3.84137 5.61298 3.84768 5.61565 3.85402 5.61871C3.92952 5.76328 4.098 5.86973 4.2049 5.99065C4.53629 6.36678 4.94508 6.70514 5.36174 7.00345C6.7813 8.02007 8.0597 8.64453 10.1129 9.10725C10.6336 9.22437 11.2357 9.31401 11.8578 9.31476C11.6829 8.84899 11.7391 8.09522 11.8767 7.64432C12.2227 6.51058 12.9743 5.69272 14.0768 5.25479C14.3404 5.15026 14.6329 5.07396 14.9397 5.01256C15.0978 4.9954 15.256 4.97823 15.414 4.96068Z" fill="#1DA1F2"/>
      </svg>